<?xml version="1.0" encoding="UTF-8" standalone="no" ?>
<!DOCTYPE svg PUBLIC "-//W3C//DTD SVG 1.1//EN" "http://www.w3.org/Graphics/SVG/1.1/DTD/svg11.dtd">
<svg xmlns="http://www.w3.org/2000/svg" xmlns:xlink="http://www.w3.org/1999/xlink" version="1.1" width="200" height="200" viewBox="0 0 200 200" xml:space="preserve">
<desc>Created with Fabric.js 5.2.4</desc>
<defs>
</defs>
<rect x="0" y="0" width="100%" height="100%" fill="transparent"></rect>
<g transform="matrix(Infinity NaN NaN Infinity 0 0)" id="12b63647-048d-4c11-8a00-839be5347e03"  >
</g>
<g transform="matrix(1 0 0 1 100 100)" id="7b4abfd0-e1fa-4aed-9337-fc11351a3dc9"  >
<rect style="stroke: none; stroke-width: 1; stroke-dasharray: none; stroke-linecap: butt; stroke-dashoffset: 0; stroke-linejoin: miter; stroke-miterlimit: 4; fill: rgb(255,255,255); fill-rule: nonzero; opacity: 1; visibility: hidden;" vector-effect="non-scaling-stroke"  x="-100" y="-100" rx="0" ry="0" width="200" height="200" />
</g>
<g transform="matrix(1.29 0 0 1.29 100 100)" id="66671f0b-81b6-4b6e-80ba-c291d361cf64"  >
<path style="stroke: rgb(0,0,0); stroke-width: 0; stroke-dasharray: none; stroke-linecap: butt; stroke-dashoffset: 0; stroke-linejoin: miter; stroke-miterlimit: 4; fill: rgb(255,255,255); fill-rule: nonzero; opacity: 1;" vector-effect="non-scaling-stroke"  transform=" translate(-61.44, -51.72)" d="M 69.49 102.77 L 49.8 84.04 L 29.569999999999997 102.31 C 29.119999999999997 102.8 28.479999999999997 103.10000000000001 27.769999999999996 103.10000000000001 C 26.419999999999995 103.10000000000001 25.329999999999995 102.01 25.329999999999995 100.66000000000001 L 25.329999999999995 60.77 L 0.76 37.41 C -0.21999999999999997 36.48 -0.25 34.94 0.67 33.959999999999994 C 0.98 33.629999999999995 1.37 33.41 1.7800000000000002 33.28999999999999 L 1.7800000000000002 33.28999999999999 L 119.78 0.0899999999999892 C 121.08 -0.2700000000000108 122.42 0.4799999999999892 122.79 1.7799999999999891 C 122.98 2.4399999999999893 122.87 3.1199999999999894 122.55000000000001 3.6699999999999893 L 73.35000000000001 102.08999999999999 C 72.75000000000001 103.28999999999999 71.29 103.77999999999999 70.09 103.17999999999999 C 69.86 103.07 69.66 102.93 69.49 102.77 L 69.49 102.77 L 69.49 102.77 z M 46.26 80.68 L 30.21 65.42 L 30.21 95.18 L 46.26 80.68 L 46.26 80.68 z M 28.15 56.73 L 104.47 9.469999999999999 L 7.22 36.83 L 28.15 56.73 L 28.15 56.73 z M 114.43 9.03 L 31.79 60.19 L 70.46000000000001 96.97 L 114.43 9.03 L 114.43 9.03 z" stroke-linecap="round" />
</g>
</svg>